<?xml version="1.0" encoding="UTF-8" standalone="no"?>
<!-- Created with Inkscape (http://www.inkscape.org/) -->

<svg
   xmlns:dc="http://purl.org/dc/elements/1.1/"
   xmlns:cc="http://creativecommons.org/ns#"
   xmlns:rdf="http://www.w3.org/1999/02/22-rdf-syntax-ns#"
   xmlns:svg="http://www.w3.org/2000/svg"
   xmlns="http://www.w3.org/2000/svg"
   xmlns:sodipodi="http://sodipodi.sourceforge.net/DTD/sodipodi-0.dtd"
   xmlns:inkscape="http://www.inkscape.org/namespaces/inkscape"
   width="16"
   height="16"
   viewBox="0 0 4.2333332 4.2333332"
   version="1.1"
   id="svg5862"
   inkscape:version="0.92.4 5da689c313, 2019-01-14"
   sodipodi:docname="close.svg">
  <defs
     id="defs5856">
    <style
       id="current-color-scheme"
       type="text/css">
    .ColorScheme-Text {
    color:#4d4d4d;
    }
    </style>
  </defs>
  <sodipodi:namedview
     id="base"
     pagecolor="#ffffff"
     bordercolor="#666666"
     borderopacity="1.0"
     inkscape:pageopacity="0.0"
     inkscape:pageshadow="2"
     inkscape:zoom="15.839192"
     inkscape:cx="-11.195952"
     inkscape:cy="30.523746"
     inkscape:document-units="mm"
     inkscape:current-layer="layer1"
     showgrid="false"
     units="px"
     inkscape:window-width="2558"
     inkscape:window-height="1342"
     inkscape:window-x="0"
     inkscape:window-y="30"
     inkscape:window-maximized="1" />
  <metadata
     id="metadata5859">
    <rdf:RDF>
      <cc:Work
         rdf:about="">
        <dc:format>image/svg+xml</dc:format>
        <dc:type
           rdf:resource="http://purl.org/dc/dcmitype/StillImage" />
        <dc:title />
      </cc:Work>
    </rdf:RDF>
  </metadata>
  <g
     inkscape:label="Layer 1"
     inkscape:groupmode="layer"
     id="layer1"
     transform="translate(0,-292.76667)">
    <path
       style="color:#000000;font-style:normal;font-variant:normal;font-weight:normal;font-stretch:normal;font-size:medium;line-height:normal;font-family:sans-serif;font-variant-ligatures:normal;font-variant-position:normal;font-variant-caps:normal;font-variant-numeric:normal;font-variant-alternates:normal;font-feature-settings:normal;text-indent:0;text-align:start;text-decoration:none;text-decoration-line:none;text-decoration-style:solid;text-decoration-color:#000000;letter-spacing:normal;word-spacing:normal;text-transform:none;writing-mode:lr-tb;direction:ltr;text-orientation:mixed;dominant-baseline:auto;baseline-shift:baseline;text-anchor:start;white-space:normal;shape-padding:0;clip-rule:nonzero;display:inline;overflow:visible;visibility:visible;opacity:1;isolation:auto;mix-blend-mode:normal;color-interpolation:sRGB;color-interpolation-filters:linearRGB;solid-color:#000000;solid-opacity:1;vector-effect:none;fill:#455a64;fill-opacity:1;fill-rule:nonzero;stroke:none;stroke-width:0.52619326;stroke-linecap:round;stroke-linejoin:round;stroke-miterlimit:4;stroke-dasharray:none;stroke-dashoffset:0;stroke-opacity:1;color-rendering:auto;image-rendering:auto;shape-rendering:auto;text-rendering:auto;enable-background:accumulate"
       d="m 0.7941577,293.29595 a 0.2630958,0.26315016 0 0 0 -0.1844,0.4507 l 1.1303999,1.13061 -1.1303999,1.13062 a 0.2630958,0.26315016 0 1 0 0.373,0.37104 l 1.1288999,-1.1301 1.12977,1.1301 a 0.2630958,0.26315016 0 1 0 0.3710001,-0.37104 l -1.1293701,-1.13062 1.1293701,-1.13061 a 0.2630958,0.26315016 0 0 0 -0.1906,-0.4507 0.2630958,0.26315016 0 0 0 -0.1804001,0.0797 l -1.12977,1.1301 -1.1288999,-1.1301 a 0.2630958,0.26315016 0 0 0 -0.1886,-0.0797 z"
       id="path7761"
       inkscape:connector-curvature="0"
       inkscape:export-filename="/home/uri/g7519-9.png"
       inkscape:export-xdpi="96"
       inkscape:export-ydpi="96" />
    <g
       transform="matrix(0.26458333,0,0,0.26458333,-0.7987585,19.349235)"
       id="layer1-6"
       inkscape:label="Capa 1">
      <path
         inkscape:connector-curvature="0"
         id="path3201"
         d="m 6.0036473,1035.362 a 0.99742186,0.99796203 0 0 0 -0.6953985,1.7131 l 4.2814727,4.2838 -4.2814727,4.2839 a 0.99742186,0.99796203 0 1 0 1.4102758,1.4109 l 4.2814734,-4.2836 4.281472,4.2836 a 0.99742186,0.99796203 0 1 0 1.410276,-1.4109 l -4.281473,-4.2839 4.281473,-4.2838 a 0.99742186,0.99796203 0 0 0 -0.724617,-1.7111 0.99742186,0.99796203 0 0 0 -0.685659,0.3002 l -4.281472,4.2836 -4.2814734,-4.2836 a 0.99742186,0.99796203 0 0 0 -0.7148773,-0.3022 z"
         class="ColorScheme-Text"
         style="color:#4d4d4d;fill:currentColor;fill-opacity:1;stroke:none" />
    </g>
  </g>
</svg>
