<?xml version="1.0" encoding="UTF-8" standalone="no"?>
<!-- Created with Inkscape (http://www.inkscape.org/) -->

<svg
   xmlns:dc="http://purl.org/dc/elements/1.1/"
   xmlns:cc="http://creativecommons.org/ns#"
   xmlns:rdf="http://www.w3.org/1999/02/22-rdf-syntax-ns#"
   xmlns:svg="http://www.w3.org/2000/svg"
   xmlns="http://www.w3.org/2000/svg"
   xmlns:sodipodi="http://sodipodi.sourceforge.net/DTD/sodipodi-0.dtd"
   xmlns:inkscape="http://www.inkscape.org/namespaces/inkscape"
   width="16"
   height="16"
   viewBox="0 0 4.2333332 4.2333332"
   version="1.1"
   id="svg5862"
   inkscape:version="0.92.4 5da689c313, 2019-01-14"
   sodipodi:docname="maximize.svg">
  <defs
     id="defs5856" />
  <sodipodi:namedview
     id="base"
     pagecolor="#ffffff"
     bordercolor="#666666"
     borderopacity="1.0"
     inkscape:pageopacity="0.0"
     inkscape:pageshadow="2"
     inkscape:zoom="22.4"
     inkscape:cx="-4.0915628"
     inkscape:cy="17.309112"
     inkscape:document-units="mm"
     inkscape:current-layer="g6423"
     showgrid="false"
     units="px"
     inkscape:window-width="2558"
     inkscape:window-height="1342"
     inkscape:window-x="0"
     inkscape:window-y="30"
     inkscape:window-maximized="1" />
  <metadata
     id="metadata5859">
    <rdf:RDF>
      <cc:Work
         rdf:about="">
        <dc:format>image/svg+xml</dc:format>
        <dc:type
           rdf:resource="http://purl.org/dc/dcmitype/StillImage" />
        <dc:title />
      </cc:Work>
    </rdf:RDF>
  </metadata>
  <g
     inkscape:label="Layer 1"
     inkscape:groupmode="layer"
     id="layer1"
     transform="translate(0,-292.76667)">
    <g
       id="g6423"
       transform="translate(0.01191931,-0.24578523)">
      <path
         style="opacity:1;fill:#455a64;fill-opacity:1;stroke:none;stroke-width:2.33333325;stroke-linecap:round;stroke-linejoin:round;stroke-miterlimit:4;stroke-dasharray:none;stroke-opacity:1"
         d="M 3.3339844 1 C 2.0413133 1 1 2.0413133 1 3.3339844 L 1 12.666016 C 1 13.958687 2.0413133 15 3.3339844 15 L 12.666016 15 C 13.958687 15 15 13.958687 15 12.666016 L 15 3.3339844 C 15 2.0413133 13.958687 1 12.666016 1 L 3.3339844 1 z M 7.5527344 3.0019531 L 12.970703 3.0019531 L 12.970703 5.9980469 L 12.970703 8.4121094 L 10.962891 6.4121094 C 9.4343019 7.9407393 7.9074901 9.4674638 6.3789062 10.996094 L 8.3789062 12.996094 L 2.96875 12.996094 L 2.96875 10 L 2.96875 7.5859375 L 4.96875 9.5859375 C 6.4963991 8.0582525 8.0250902 6.5296382 9.5527344 5.0019531 L 7.5527344 3.0019531 z "
         id="rect7763"
         transform="matrix(0.26458333,0,0,0.26458333,-0.01191931,293.01246)" />
      <g
         id="g820" />
    </g>
  </g>
</svg>
