<?xml version="1.0" encoding="UTF-8" standalone="no"?>
<!-- Created with Inkscape (http://www.inkscape.org/) -->

<svg
   xmlns:dc="http://purl.org/dc/elements/1.1/"
   xmlns:cc="http://creativecommons.org/ns#"
   xmlns:rdf="http://www.w3.org/1999/02/22-rdf-syntax-ns#"
   xmlns:svg="http://www.w3.org/2000/svg"
   xmlns="http://www.w3.org/2000/svg"
   xmlns:sodipodi="http://sodipodi.sourceforge.net/DTD/sodipodi-0.dtd"
   xmlns:inkscape="http://www.inkscape.org/namespaces/inkscape"
   width="16"
   height="16"
   viewBox="0 0 4.2333332 4.2333332"
   version="1.1"
   id="svg5862"
   inkscape:version="0.92.4 5da689c313, 2019-01-14"
   sodipodi:docname="restore.svg">
  <defs
     id="defs5856" />
  <sodipodi:namedview
     id="base"
     pagecolor="#ffffff"
     bordercolor="#666666"
     borderopacity="1.0"
     inkscape:pageopacity="0.0"
     inkscape:pageshadow="2"
     inkscape:zoom="31.678384"
     inkscape:cx="17.295014"
     inkscape:cy="5.5644334"
     inkscape:document-units="mm"
     inkscape:current-layer="g6423"
     showgrid="false"
     units="px"
     inkscape:window-width="2560"
     inkscape:window-height="1348"
     inkscape:window-x="0"
     inkscape:window-y="30"
     inkscape:window-maximized="1" />
  <metadata
     id="metadata5859">
    <rdf:RDF>
      <cc:Work
         rdf:about="">
        <dc:format>image/svg+xml</dc:format>
        <dc:type
           rdf:resource="http://purl.org/dc/dcmitype/StillImage" />
        <dc:title></dc:title>
      </cc:Work>
    </rdf:RDF>
  </metadata>
  <g
     inkscape:label="Layer 1"
     inkscape:groupmode="layer"
     id="layer1"
     transform="translate(0,-292.76667)">
    <g
       id="g6423"
       transform="translate(0.01191931,-0.24578523)">
      <path
         style="opacity:1;fill:#455a64;fill-opacity:1;stroke:none;stroke-width:2.33333325;stroke-linecap:round;stroke-linejoin:round;stroke-miterlimit:4;stroke-dasharray:none;stroke-opacity:1"
         d="M 3.3339844 1 C 2.0413133 1 1 2.0413133 1 3.3339844 L 1 12.666016 C 1 13.958687 2.0413133 15 3.3339844 15 L 12.666016 15 C 13.958687 15 15 13.958687 15 12.666016 L 15 3.3339844 C 15 2.0413133 13.958687 1 12.666016 1 L 3.3339844 1 z M 12.470703 2.0820312 L 13.880859 3.4921875 L 11.550781 5.8222656 L 13.550781 7.8300781 L 11.136719 7.8300781 L 8.140625 7.8300781 L 8.140625 2.4121094 L 10.140625 4.4121094 L 12.470703 2.0820312 z M 2.3730469 8.2539062 L 7.7832031 8.2539062 L 7.7832031 11.25 L 7.7832031 13.664062 L 5.7832031 11.664062 L 3.5292969 13.917969 L 2.1191406 12.507812 L 4.3730469 10.253906 L 2.3730469 8.2539062 z "
         id="rect7763"
         transform="matrix(0.26458333,0,0,0.26458333,-0.01191931,293.01246)" />
      <g
         id="g820">
        <g
           id="g832"
           transform="translate(0.00498028,-0.0118681)" />
      </g>
    </g>
  </g>
</svg>
